<svg viewBox="0 0 24 24" xmlns="http://www.w3.org/2000/svg">
  <path fill="currentColor" d="M13.33 8.04a4.22 4.22 0 0 0-3.7-2.14 4.23 4.23 0 0 0-4.22 4.23c0 .28.03.56.08.83a3.51 3.51 0 0 0-2.93 3.44 3.51 3.51 0 0 0 3.51 3.52h6.63a2.81 2.81 0 0 0 2.81-2.81 2.81 2.81 0 0 0-2.18-2.74zm5.85-.23a5.06 5.06 0 0 0-4.42-2.56c-.39 0-.77.04-1.14.13-.69-1.36-2.08-2.29-3.71-2.29a4.22 4.22 0 0 0-4.17 3.52 4.69 4.69 0 0 0-3.23 4.43 4.69 4.69 0 0 0 4.69 4.69h10.57a3.75 3.75 0 0 0 3.75-3.75 3.75 3.75 0 0 0-2.34-3.47z"/>
</svg>